<svg width="19" height="20" viewBox="0 0 19 20" fill="none" xmlns="http://www.w3.org/2000/svg">
<path d="M11.4774 6.70792L10.9211 5.74442C10.6752 5.31852 10.2682 5.00893 9.7895 4.88375C9.31084 4.75856 8.79978 4.82805 8.36874 5.0769C7.93771 5.32576 7.622 5.73361 7.49109 6.21073C7.36017 6.68786 7.42476 7.19517 7.67065 7.62106L4.70384 2.48239C4.45795 2.0565 4.0509 1.74691 3.57224 1.62172C3.09358 1.49654 2.58252 1.56602 2.15149 1.81488C1.72045 2.06374 1.40475 2.47159 1.27383 2.94871C1.14292 3.42583 1.20751 3.93314 1.4534 4.35903L7.07643 14.0984L3.53527 12.0748C3.10644 11.8298 2.59548 11.7651 2.11478 11.8951C1.63409 12.025 1.22304 12.339 0.972061 12.7678C0.721083 13.1966 0.650735 13.7052 0.776493 14.1817C0.902251 14.6582 1.21381 15.0636 1.64264 15.3086C7.47644 19.2952 10.198 20.2932 13.7897 18.2196C14.6434 17.7267 15.3928 17.0725 15.9952 16.2943C16.5975 15.5161 17.041 14.6292 17.3003 13.6842C17.5596 12.7392 17.6296 11.7547 17.5064 10.7867C17.3832 9.81881 17.0691 8.88646 16.5821 8.04294L14.7278 4.83127C14.4819 4.40538 14.0749 4.09579 13.5962 3.9706C13.1176 3.84542 12.6065 3.9149 12.1755 4.16376C11.7444 4.41262 11.4287 4.82047 11.2978 5.29759C11.1669 5.77471 11.2315 6.28202 11.4774 6.70792V6.70792Z" stroke="white" stroke-width="1.2" stroke-linecap="round" stroke-linejoin="round"/>
</svg>
