<svg width="36" height="36" viewBox="0 0 36 36" fill="none" xmlns="http://www.w3.org/2000/svg">
<rect width="36" height="36" rx="18" fill="#7966F0"/>
<g clip-path="url(#clip0_535_3454)">
<path d="M20.0625 13.875V24.5055C20.0615 24.6197 20.0893 24.7324 20.1434 24.833C20.1974 24.9337 20.2761 25.0191 20.3719 25.0812L21.3172 25.7086C21.4088 25.7697 21.5137 25.808 21.6232 25.8201C21.7326 25.8323 21.8434 25.8179 21.9461 25.7784C22.0489 25.7388 22.1406 25.6751 22.2136 25.5927C22.2866 25.5102 22.3388 25.4115 22.3657 25.3047L23.5 20.75" stroke="white" stroke-width="1.4" stroke-linecap="round" stroke-linejoin="round"/>
<path d="M23.5 20.7499C24.4117 20.7499 25.286 20.3878 25.9307 19.7431C26.5753 19.0985 26.9375 18.2241 26.9375 17.3124C26.9375 16.4008 26.5753 15.5264 25.9307 14.8818C25.286 14.2371 24.4117 13.8749 23.5 13.8749H20.0625C20.0625 13.8749 15.3789 13.8749 10.8758 10.1023C10.7756 10.0194 10.654 9.96662 10.5251 9.95006C10.3961 9.9335 10.2651 9.95384 10.1473 10.0087C10.0294 10.0636 9.92953 10.1508 9.85922 10.2601C9.7889 10.3695 9.75103 10.4965 9.75 10.6265V23.9984C9.75103 24.1284 9.7889 24.2554 9.85922 24.3648C9.92953 24.4741 10.0294 24.5613 10.1473 24.6162C10.2651 24.6711 10.3961 24.6914 10.5251 24.6748C10.654 24.6583 10.7756 24.6055 10.8758 24.5226C15.3789 20.7499 20.0625 20.7499 20.0625 20.7499H23.5Z" stroke="white" stroke-width="1.4" stroke-linecap="round" stroke-linejoin="round"/>
</g>
<defs>
<clipPath id="clip0_535_3454">
<rect width="22" height="22" fill="white" transform="translate(7 7)"/>
</clipPath>
</defs>
</svg>
